<svg width="16" height="16" xmlns="http://www.w3.org/2000/svg"><style>#b{fill:#000}#a,#q{fill:#FFF}#e{fill:transparent}@media(prefers-color-scheme:dark){#b{fill:#FFF}#a,#e{fill:#000}#q{fill:transparent}}</style><path d="M0 0h16v16H0z" fill-rule="evenodd" id="b" /><path d="M11.915 9.656v1.532h-1.563V9.656h1.563zm-.77-5.413c1.518 0 2.578.73 2.578 2.035h-.004c0 .853-.557 1.309-1.077 1.646-.575.373-.731.58-.731 1.12v.062h-1.56v-.15c0-1.008.397-1.431 1.054-1.793.454-.248.653-.485.653-.833 0-.436-.387-.722-.932-.722-.593 0-1.03.283-1.03.913H8.545V6.31c0-1.32 1.133-2.066 2.601-2.066z" id="q"/><path d="M6.71 8.643H5.007l.851-2.412.852 2.412zm2.634 2.549L6.9 4.422H4.812l-2.44 6.77h1.736l.423-1.197h2.656l.423 1.198 1.734-.001z" id="a"/><path d="M11.569 9.673v1.535h-1.565V9.673h1.565zm.05-5.235v2.346l-.405 2.345h-.918l-.339-2.345V4.438h1.662z" id="e"/></svg>
